<svg width="81" height="34" viewBox="0 0 81 34" fill="none" xmlns="http://www.w3.org/2000/svg">
<rect width="81" height="34" rx="17" fill="#242B36"/>
<g filter="url(#filter0_d_4_144)">
<path d="M18.299 23.27C16.991 23.27 15.836 23.006 14.834 22.478C13.838 21.944 13.058 21.188 12.494 20.21C11.936 19.232 11.657 18.077 11.657 16.745C11.657 15.773 11.819 14.882 12.143 14.072C12.473 13.262 12.938 12.563 13.538 11.975C14.138 11.387 14.846 10.934 15.662 10.616C16.478 10.292 17.372 10.13 18.344 10.13C19.43 10.13 20.33 10.268 21.044 10.544C21.764 10.814 22.421 11.201 23.015 11.705L21.377 14.423C21.041 14.069 20.633 13.802 20.153 13.622C19.679 13.442 19.148 13.352 18.56 13.352C18.014 13.352 17.528 13.43 17.102 13.586C16.676 13.742 16.316 13.967 16.022 14.261C15.734 14.549 15.512 14.9 15.356 15.314C15.206 15.722 15.131 16.184 15.131 16.7C15.131 17.396 15.269 17.993 15.545 18.491C15.821 18.989 16.217 19.373 16.733 19.643C17.255 19.907 17.882 20.039 18.614 20.039C19.154 20.039 19.694 19.955 20.234 19.787C20.78 19.619 21.299 19.355 21.791 18.995L23.303 21.767C22.727 22.205 22.028 22.565 21.206 22.847C20.384 23.129 19.415 23.27 18.299 23.27ZM29.2469 23.27C28.2269 23.27 27.3239 23.048 26.5379 22.604C25.7579 22.154 25.1459 21.56 24.7019 20.822C24.2639 20.078 24.0449 19.259 24.0449 18.365C24.0449 17.717 24.1709 17.099 24.4229 16.511C24.6749 15.923 25.0319 15.401 25.4939 14.945C25.9619 14.489 26.5139 14.129 27.1499 13.865C27.7859 13.595 28.4849 13.46 29.2469 13.46C30.2669 13.46 31.1669 13.685 31.9469 14.135C32.7329 14.579 33.3449 15.173 33.7829 15.917C34.2269 16.655 34.4489 17.471 34.4489 18.365C34.4489 19.007 34.3229 19.625 34.0709 20.219C33.8189 20.807 33.4589 21.329 32.9909 21.785C32.5289 22.241 31.9799 22.604 31.3439 22.874C30.7139 23.138 30.0149 23.27 29.2469 23.27ZM29.2469 20.471C29.6249 20.471 29.9639 20.387 30.2639 20.219C30.5699 20.045 30.8099 19.802 30.9839 19.49C31.1639 19.172 31.2539 18.797 31.2539 18.365C31.2539 17.933 31.1669 17.561 30.9929 17.249C30.8189 16.931 30.5789 16.688 30.2729 16.52C29.9729 16.346 29.6309 16.259 29.2469 16.259C28.8629 16.259 28.5179 16.346 28.2119 16.52C27.9059 16.688 27.6659 16.931 27.4919 17.249C27.3239 17.561 27.2399 17.933 27.2399 18.365C27.2399 18.797 27.3269 19.172 27.5009 19.49C27.6749 19.802 27.9149 20.045 28.2209 20.219C28.5269 20.387 28.8689 20.471 29.2469 20.471ZM36.0853 23V10.04H39.3613V23H36.0853ZM41.7103 23V10.04H44.9863V23H41.7103ZM49.9453 23.27C49.3393 23.27 48.7903 23.153 48.2983 22.919C47.8063 22.679 47.4133 22.337 47.1193 21.893C46.8313 21.443 46.6873 20.903 46.6873 20.273C46.6873 19.727 46.8193 19.247 47.0833 18.833C47.3533 18.419 47.7523 18.08 48.2803 17.816C48.8143 17.552 49.4773 17.372 50.2693 17.276C51.0673 17.18 51.9943 17.177 53.0503 17.267L53.0683 19.256C52.5763 19.16 52.1233 19.106 51.7093 19.094C51.2953 19.082 50.9353 19.112 50.6293 19.184C50.3233 19.25 50.0863 19.358 49.9183 19.508C49.7503 19.658 49.6663 19.853 49.6663 20.093C49.6663 20.375 49.7743 20.588 49.9903 20.732C50.2123 20.87 50.5033 20.939 50.8633 20.939C51.1873 20.939 51.4783 20.885 51.7363 20.777C51.9943 20.669 52.1983 20.504 52.3483 20.282C52.5043 20.06 52.5823 19.778 52.5823 19.436V17.438C52.5823 17.132 52.5193 16.859 52.3933 16.619C52.2733 16.379 52.0693 16.193 51.7812 16.061C51.4993 15.923 51.1153 15.854 50.6293 15.854C50.1493 15.854 49.6753 15.926 49.2073 16.07C48.7393 16.214 48.3223 16.421 47.9563 16.691L47.1373 14.486C47.7493 14.108 48.4063 13.829 49.1083 13.649C49.8103 13.463 50.5003 13.37 51.1783 13.37C52.0603 13.37 52.8403 13.511 53.5183 13.793C54.2023 14.069 54.7363 14.504 55.1203 15.098C55.5103 15.692 55.7053 16.457 55.7053 17.393V23H52.8973V22.055C52.6093 22.445 52.2103 22.745 51.7003 22.955C51.1903 23.165 50.6053 23.27 49.9453 23.27ZM63.8029 23.27C63.2389 23.27 62.7199 23.186 62.2459 23.018C61.7779 22.85 61.3759 22.616 61.0399 22.316C60.7039 22.016 60.4549 21.665 60.2929 21.263L60.7339 20.525V23H57.9349V10.04H61.1929V15.809L60.4459 15.062C60.8719 14.516 61.3609 14.114 61.9129 13.856C62.4649 13.592 63.0739 13.46 63.7399 13.46C64.6519 13.46 65.4559 13.676 66.1519 14.108C66.8539 14.534 67.4029 15.119 67.7989 15.863C68.2009 16.601 68.4019 17.435 68.4019 18.365C68.4019 19.109 68.2849 19.784 68.0509 20.39C67.8229 20.996 67.5019 21.512 67.0879 21.938C66.6739 22.364 66.1879 22.694 65.6299 22.928C65.0719 23.156 64.4629 23.27 63.8029 23.27ZM63.1999 20.471C63.5779 20.471 63.9199 20.387 64.2259 20.219C64.5319 20.045 64.7719 19.802 64.9459 19.49C65.1199 19.172 65.2069 18.797 65.2069 18.365C65.2069 17.933 65.1199 17.561 64.9459 17.249C64.7779 16.931 64.5409 16.688 64.2349 16.52C63.9289 16.346 63.5839 16.259 63.1999 16.259C62.8159 16.259 62.4709 16.346 62.1649 16.52C61.8649 16.688 61.6279 16.931 61.4539 17.249C61.2799 17.561 61.1929 17.933 61.1929 18.365C61.1929 18.797 61.2799 19.172 61.4539 19.49C61.6339 19.802 61.8739 20.045 62.1739 20.219C62.4799 20.387 62.8219 20.471 63.1999 20.471Z" fill="white"/>
</g>
<defs>
<filter id="filter0_d_4_144" x="7.65698" y="10.04" width="64.7449" height="21.23" filterUnits="userSpaceOnUse" color-interpolation-filters="sRGB">
<feFlood flood-opacity="0" result="BackgroundImageFix"/>
<feColorMatrix in="SourceAlpha" type="matrix" values="0 0 0 0 0 0 0 0 0 0 0 0 0 0 0 0 0 0 127 0" result="hardAlpha"/>
<feOffset dy="4"/>
<feGaussianBlur stdDeviation="2"/>
<feComposite in2="hardAlpha" operator="out"/>
<feColorMatrix type="matrix" values="0 0 0 0 0 0 0 0 0 0 0 0 0 0 0 0 0 0 0.25 0"/>
<feBlend mode="normal" in2="BackgroundImageFix" result="effect1_dropShadow_4_144"/>
<feBlend mode="normal" in="SourceGraphic" in2="effect1_dropShadow_4_144" result="shape"/>
</filter>
</defs>
</svg>
