<svg width="18" height="18" viewBox="0 0 18 18" fill="none" xmlns="http://www.w3.org/2000/svg">
<path d="M15.75 15.75L11.475 14.325C11.475 14.325 10.5635 15 8.625 15C5.10418 15 2.25 12.1458 2.25 8.625C2.25 5.10418 5.10418 2.25 8.625 2.25C12.1458 2.25 15 5.10418 15 8.625C15 10.5 14.325 11.475 14.325 11.475L15.75 15.75Z" fill="white" fill-opacity="0.15"/>
<path d="M6 7.125H11.25M6 10.125H9.75M11.475 14.325L15.75 15.75L14.325 11.475C14.325 11.475 15 10.5 15 8.625C15 5.10418 12.1458 2.25 8.625 2.25C5.10418 2.25 2.25 5.10418 2.25 8.625C2.25 12.1458 5.10418 15 8.625 15C10.5635 15 11.475 14.325 11.475 14.325Z" stroke="#45414A" stroke-width="2" stroke-linecap="round" stroke-linejoin="round"/>
</svg>
